<svg xmlns="http://www.w3.org/2000/svg" width="258" height="270.747" viewBox="0 0 258 270.747">
  <g id="tutorial" transform="translate(-329 -354.253)">
    <g id="question-mark" transform="translate(245.929 354.253)">
      <path id="Path_6" data-name="Path 6" d="M416.9,788.2h-9.492a12.127,12.127,0,0,0-12.118,12.117v13.107a12.127,12.127,0,0,0,12.118,12.118H416.9a12.127,12.127,0,0,0,12.117-12.118V800.316A12.114,12.114,0,0,0,416.9,788.2Z" transform="translate(-201.649 -629.016)" fill="#fff"/>
      <path id="Path_7" data-name="Path 7" d="M148.321,57.72l17.51,2.181a12.125,12.125,0,0,0,12.824-7.735A37.353,37.353,0,0,1,189.2,36.554q9.573-8.058,23.811-8.078,14.753,0,23.488,7.735c5.816,5.17,8.7,11.35,8.7,18.6a23.15,23.15,0,0,1-4.908,14.3q-3.181,4.12-19.529,17.348t-21.791,23.851c-3.716,7.23-5.009,15.248-5.332,23.286a12.117,12.117,0,0,0,12.117,12.622h9.9a12.144,12.144,0,0,0,12.077-11.088c.4-4.5,1.151-7.917,2.282-10.239q2.847-5.968,14.682-15.773,22.871-18.934,29.849-29.951a42.884,42.884,0,0,0,6.988-23.326q0-22.266-18.984-39.059Q243.585,0,211.453,0q-30.536,0-49.3,16.561-16,14.117-19.428,33.424A6.53,6.53,0,0,0,148.321,57.72Z" transform="translate(0 0)" fill="#fff"/>
    </g>
    <text id="Tutorial_Acak_Soal" data-name="Tutorial Acak Soal" transform="translate(329 615)" fill="#fff" font-size="29" font-family="Poppins-Regular, Poppins"><tspan x="0" y="0">Tutorial Acak Soal</tspan></text>
  </g>
</svg>
